<?xml version="1.0" encoding="utf-8"?>
<!-- Generator: Adobe Illustrator 16.0.0, SVG Export Plug-In . SVG Version: 6.00 Build 0)  -->
<!DOCTYPE svg PUBLIC "-//W3C//DTD SVG 1.1//EN" "http://www.w3.org/Graphics/SVG/1.1/DTD/svg11.dtd">
<svg version="1.1" id="图层_1" xmlns="http://www.w3.org/2000/svg" xmlns:xlink="http://www.w3.org/1999/xlink" x="0px" y="0px"
	 width="350px" height="350px" viewBox="47.5 25.5 350 350" enable-background="new 47.5 25.5 350 350" xml:space="preserve">
<g>
	<g>
		<path fill="#FFA600" d="M79,176.273c0,0,29.272-80.55,32.785-90.33c3.514-9.786,14.683-17.091,32.789-17.091h157.694
			c18.109,0,28.888,6.998,33.57,21.181c4.686,14.184,32.006,86.24,32.006,86.24H79z"/>
		
			<linearGradient id="SVGID_1_" gradientUnits="userSpaceOnUse" x1="5.0278" y1="592.8408" x2="5.0278" y2="489.4072" gradientTransform="matrix(1 0 0 -1 219.04 663.3398)">
			<stop  offset="0" style="stop-color:#FFFFFF"/>
			<stop  offset="0.0917" style="stop-color:#FFF3D1"/>
			<stop  offset="0.1865" style="stop-color:#FFE9A9"/>
			<stop  offset="0.2879" style="stop-color:#FFE087"/>
			<stop  offset="0.395" style="stop-color:#FFD96B"/>
			<stop  offset="0.51" style="stop-color:#FFD455"/>
			<stop  offset="0.6366" style="stop-color:#FFD046"/>
			<stop  offset="0.7837" style="stop-color:#FFCE3D"/>
			<stop  offset="1" style="stop-color:#FFCD3A"/>
		</linearGradient>
		<path fill="url(#SVGID_1_)" d="M85.005,173.933c0,0,28.186-77.565,31.566-86.976c3.387-9.426,14.135-16.458,31.575-16.458h151.841
			c17.436,0,27.811,6.736,32.325,20.393c4.509,13.662,30.818,83.041,30.818,83.041H85.005z"/>
		<path fill="#666666" d="M158.025,78.276c-15.457,0-26.921,5.914-30.674,15.81l-29.548,77.15h254.121l-1.872-4.682
			c-0.229-0.576-23.164-57.908-27.062-69.093c-4.495-12.904-14.755-19.183-31.366-19.183H158.025V78.276z"/>
		<path fill="#2EB0E6" d="M102.465,167.88c0,0,24.808-64.671,27.782-72.526c2.976-7.852,12.438-13.723,27.779-13.723h133.599
			c15.343,0,24.475,5.619,28.44,17.008c3.971,11.387,27.118,69.241,27.118,69.241H102.465z"/>
		
			<linearGradient id="SVGID_2_" gradientUnits="userSpaceOnUse" x1="-11.2036" y1="581.7109" x2="-11.2036" y2="504.8984" gradientTransform="matrix(1 0 0 -1 219.04 663.3398)">
			<stop  offset="0" style="stop-color:#FFFFFF"/>
			<stop  offset="1" style="stop-color:#2EB0E6"/>
		</linearGradient>
		<path fill="url(#SVGID_2_)" d="M309.586,85.58c-4.627-2.632-10.566-3.951-17.962-3.951H158.025
			c-15.34,0-24.803,5.871-27.779,13.722c-2.263,5.978-17.164,44.842-24.16,63.09C188.048,140.694,268.136,105.188,309.586,85.58z"/>
	</g>
	<g>
		<g>
			
				<linearGradient id="SVGID_3_" gradientUnits="userSpaceOnUse" x1="175.6211" y1="-482.9268" x2="229.625" y2="-482.9268" gradientTransform="matrix(-1 0 0 1 535.6699 769.6758)">
				<stop  offset="0.0056" style="stop-color:#7D7C7D"/>
				<stop  offset="0.1067" style="stop-color:#000000"/>
				<stop  offset="0.4725" style="stop-color:#020202"/>
				<stop  offset="0.6042" style="stop-color:#090909"/>
				<stop  offset="0.6981" style="stop-color:#141414"/>
				<stop  offset="0.7735" style="stop-color:#252525"/>
				<stop  offset="0.8378" style="stop-color:#3B3B3B"/>
				<stop  offset="0.8478" style="stop-color:#3F3F3F"/>
				<stop  offset="0.8803" style="stop-color:#454545"/>
				<stop  offset="0.9217" style="stop-color:#545454"/>
				<stop  offset="0.9676" style="stop-color:#6E6E6E"/>
				<stop  offset="1" style="stop-color:#858585"/>
			</linearGradient>
			<path fill="url(#SVGID_3_)" d="M306.045,248.84c0-4.782,5.377-8.668,12.001-8.668h30.001c6.628,0,12.002,3.884,12.002,8.668
				v75.817c0,4.79-5.374,8.668-12.002,8.668h-30.001c-6.624,0-12.001-3.876-12.001-8.668V248.84z"/>
			
				<linearGradient id="SVGID_4_" gradientUnits="userSpaceOnUse" x1="175.6211" y1="-465.7539" x2="229.625" y2="-465.7539" gradientTransform="matrix(-1 0 0 1 535.6699 769.6758)">
				<stop  offset="0.0056" style="stop-color:#7D7C7D"/>
				<stop  offset="0.0899" style="stop-color:#0D0D0D"/>
				<stop  offset="0.5718" style="stop-color:#0F0F0F"/>
				<stop  offset="0.7451" style="stop-color:#151515"/>
				<stop  offset="0.8478" style="stop-color:#1F1F1F"/>
				<stop  offset="0.8737" style="stop-color:#242424"/>
				<stop  offset="0.9066" style="stop-color:#343434"/>
				<stop  offset="0.9433" style="stop-color:#4E4E4E"/>
				<stop  offset="0.9825" style="stop-color:#727272"/>
				<stop  offset="1" style="stop-color:#858585"/>
			</linearGradient>
			<rect x="306.045" y="291.783" fill="url(#SVGID_4_)" width="54.004" height="24.278"/>
			
				<linearGradient id="SVGID_5_" gradientUnits="userSpaceOnUse" x1="201.1377" y1="-435.1714" x2="203.6726" y2="-531.6478" gradientTransform="matrix(-1 0 0 1 535.6699 769.6758)">
				<stop  offset="0" style="stop-color:#000000"/>
				<stop  offset="0.0841" style="stop-color:#2C2C2D"/>
				<stop  offset="0.1742" style="stop-color:#58585A"/>
				<stop  offset="0.2191" style="stop-color:#969696"/>
				<stop  offset="0.4326" style="stop-color:#959597"/>
				<stop  offset="0.4831" style="stop-color:#575758"/>
				<stop  offset="1" style="stop-color:#0D0D0D"/>
			</linearGradient>
			<path fill="url(#SVGID_5_)" d="M321.617,305.77l2.319,2.928h4.205v-0.26h-3.996l-2.109-2.667l2.109-2.669h3.996v-0.264h-4.205
				L321.617,305.77z M321.617,318.495l2.319,2.933h4.205v-0.263h-3.996l-2.109-2.67l2.109-2.669h3.996v-0.261h-4.205
				L321.617,318.495z M321.617,293.042l2.319,2.929h4.205v-0.265h-3.996l-2.109-2.665l2.109-2.672h3.996v-0.263h-4.205
				L321.617,293.042z M334.344,331.231l-1.649,2.096h0.417l1.65-2.096l-2.314-2.93h-4.208v0.259h4.001L334.344,331.231z
				 M334.76,293.049l-2.313-2.931h-4.208v0.265h4.001l2.103,2.667l-2.103,2.671h-4.001v0.263h4.208L334.76,293.049z
				 M321.617,280.312l2.319,2.931h4.205v-0.26h-3.996l-2.109-2.67l2.109-2.669h3.996v-0.264h-4.205L321.617,280.312z
				 M334.76,280.325l-2.313-2.932h-4.208v0.263h4.001l2.103,2.669l-2.103,2.666h-4.001v0.263h4.208L334.76,280.325z M334.76,305.782
				l-2.313-2.936h-4.208v0.265h4.001l2.103,2.67l-2.103,2.667h-4.001v0.262h4.208L334.76,305.782z M334.76,318.507l-2.313-2.933
				h-4.208v0.263h4.001l2.103,2.67l-2.103,2.667h-4.001v0.264h4.208L334.76,318.507z M334.76,267.597l-2.313-2.932h-4.208v0.259
				h4.001l2.103,2.672l-2.103,2.667h-4.001v0.267h4.208L334.76,267.597z M321.617,267.587l2.319,2.93h4.205v-0.263h-3.996
				l-2.109-2.667l2.109-2.67h3.996v-0.264h-4.205L321.617,267.587z M324.442,299.539l-2.313-2.934h-4.207v0.266h4l2.104,2.668
				l-2.104,2.669h-4v0.261h4.207L324.442,299.539z M348.613,245.063v-0.261h-3.994l-2.111-2.665l1.547-1.962h-0.416l-1.546,1.962
				l2.313,2.926H348.613L348.613,245.063z M324.442,286.813l-2.313-2.934h-4.207v0.265h4l2.104,2.669l-2.104,2.667h-4v0.267h4.207
				L324.442,286.813z M331.94,312.277l2.313,2.932h4.21v-0.013h4.137l2.316-2.932l-2.316-2.93h-4.208v0.014h-4.142L331.94,312.277z
				 M338.463,309.609v-0.012h3.93l2.108,2.667l-2.108,2.673h-4v0.009h-3.932l-2.108-2.669l2.108-2.668H338.463z M324.442,248.631
				l-2.313-2.932h-4.207v0.263h4l2.104,2.668l-2.104,2.671h-4v0.264h4.207L324.442,248.631z M324.442,274.088l-2.313-2.933h-4.207
				v0.264h4l2.104,2.669l-2.104,2.667h-4v0.265h4.207L324.442,274.088z M321.617,254.859l2.319,2.933h4.205v-0.266h-3.996
				l-2.109-2.667l2.109-2.665h3.996v-0.269h-4.205L321.617,254.859z M324.442,261.36l-2.313-2.932h-4.207v0.262h4l2.104,2.67
				l-2.104,2.667h-4v0.261h4.207L324.442,261.36z M324.442,312.264l-2.313-2.93h-4.207v0.263h4l2.104,2.667l-2.104,2.673h-4v0.259
				h4.207L324.442,312.264z M338.463,264.289h4.137l2.318-2.928l-2.318-2.932h-4.208v0.009h-4.142l-2.312,2.934l2.312,2.93h4.21
				v-0.012H338.463z M338.394,264.037h-3.932l-2.108-2.669l2.108-2.668h4.003v-0.012h3.93l2.108,2.67l-2.108,2.667h-3.999v0.011
				H338.394z M334.76,242.144l-1.551-1.969h-0.417l1.553,1.969l-2.103,2.669h-4.001v0.259h4.208L334.76,242.144z M334.76,254.871
				l-2.313-2.933h-4.208v0.264h4.001l2.103,2.669l-2.103,2.67h-4.001v0.258h4.208L334.76,254.871z M331.94,274.098l2.313,2.928h4.21
				v-0.006h4.137l2.318-2.932l-2.318-2.933h-4.208v0.01h-4.142L331.94,274.098z M338.463,271.428v-0.009h3.93l2.108,2.669
				l-2.108,2.667h-4v0.013h-3.932l-2.108-2.67l2.108-2.669H338.463z M331.94,286.825l2.313,2.928h4.21v-0.006h4.137l2.316-2.934
				l-2.316-2.934h-4.208v0.01h-4.142L331.94,286.825z M338.463,284.154v-0.009h3.93l2.108,2.669l-2.108,2.667h-4v0.015h-3.932
				l-2.108-2.67l2.108-2.671H338.463z M331.94,299.548l2.313,2.934h4.21v-0.013h4.137l2.316-2.93l-2.316-2.934h-4.208v0.012h-4.142
				L331.94,299.548z M338.463,296.883v-0.012h3.93l2.108,2.668l-2.108,2.669h-4v0.01h-3.932l-2.108-2.669l2.108-2.666H338.463z
				 M344.916,324.994l-2.316-2.933h-4.208v0.006h-4.142l-2.312,2.936l2.312,2.933h4.21v-0.014h4.137L344.916,324.994z
				 M338.394,327.662v0.011h-3.932l-2.108-2.67l2.108-2.667h4.003v-0.011h3.93l2.108,2.669l-2.108,2.668H338.394z M317.922,327.662
				v0.261h4.208l2.312-2.929l-2.312-2.933h-4.208v0.264h4l2.104,2.669l-2.104,2.668H317.922z M342.094,331.223l1.66,2.105h0.419
				l-1.665-2.105l2.111-2.667h3.994v-0.269h-4.208L342.094,331.223z M328.139,245.063v-0.261h-3.996l-2.11-2.665l1.544-1.962h-0.416
				l-1.545,1.962l2.319,2.926H328.139L328.139,245.063z M342.094,254.859l2.313,2.933h4.208v-0.266h-3.994l-2.111-2.667l2.111-2.665
				h3.994v-0.269h-4.208L342.094,254.859z M342.094,267.587l2.313,2.93h4.208v-0.263h-3.994l-2.111-2.667l2.111-2.67h3.994v-0.264
				h-4.208L342.094,267.587z M331.94,248.643l2.313,2.934h4.21v-0.01h4.137l2.318-2.935L342.6,245.7h-4.208v0.012h-4.142
				L331.94,248.643z M338.463,245.972v-0.009h3.93l2.108,2.668l-2.108,2.671h-4v0.011h-3.932l-2.108-2.671l2.108-2.67H338.463z
				 M321.617,331.223l1.663,2.105h0.416l-1.662-2.105l2.11-2.667h3.996v-0.269h-4.205L321.617,331.223z M342.094,280.312
				l2.313,2.931h4.208v-0.26h-3.994l-2.111-2.67l2.111-2.669h3.994v-0.264h-4.208L342.094,280.312z M342.094,305.77l2.313,2.928
				h4.208v-0.26h-3.994l-2.111-2.667l2.111-2.669h3.994v-0.264h-4.208L342.094,305.77z M342.094,293.042l2.313,2.929h4.208v-0.265
				h-3.994l-2.111-2.665l2.111-2.672h3.994v-0.263h-4.208L342.094,293.042z M342.094,318.495l2.313,2.933h4.208v-0.263h-3.994
				l-2.111-2.67l2.111-2.669h3.994v-0.261h-4.208L342.094,318.495z"/>
			<g>
				<g>
					<rect x="346.917" y="240.174" fill="#666666" width="2.725" height="93.153"/>
					<rect x="347.594" y="240.174" fill="#0A0A0A" width="1.861" height="93.153"/>
				</g>
				<g>
					<rect x="336.758" y="240.174" fill="#666666" width="2.729" height="93.153"/>
					<rect x="337.44" y="240.174" fill="#0A0A0A" width="1.86" height="93.153"/>
				</g>
				<g>
					<rect x="326.608" y="240.174" fill="#666666" width="2.727" height="93.153"/>
					<rect x="327.288" y="240.174" fill="#0A0A0A" width="1.858" height="93.153"/>
				</g>
				<g>
					<rect x="316.455" y="240.174" fill="#666666" width="2.723" height="93.153"/>
					<rect x="317.134" y="240.174" fill="#0A0A0A" width="1.854" height="93.153"/>
				</g>
			</g>
		</g>
		<g>
			
				<linearGradient id="SVGID_6_" gradientUnits="userSpaceOnUse" x1="394.8701" y1="-482.9268" x2="448.873" y2="-482.9268" gradientTransform="matrix(-1 0 0 1 535.6699 769.6758)">
				<stop  offset="0.0056" style="stop-color:#7D7C7D"/>
				<stop  offset="0.1067" style="stop-color:#000000"/>
				<stop  offset="0.4725" style="stop-color:#020202"/>
				<stop  offset="0.6042" style="stop-color:#090909"/>
				<stop  offset="0.6981" style="stop-color:#141414"/>
				<stop  offset="0.7735" style="stop-color:#252525"/>
				<stop  offset="0.8378" style="stop-color:#3B3B3B"/>
				<stop  offset="0.8478" style="stop-color:#3F3F3F"/>
				<stop  offset="0.8803" style="stop-color:#454545"/>
				<stop  offset="0.9217" style="stop-color:#545454"/>
				<stop  offset="0.9676" style="stop-color:#6E6E6E"/>
				<stop  offset="1" style="stop-color:#858585"/>
			</linearGradient>
			<path fill="url(#SVGID_6_)" d="M86.797,248.84c0-4.782,5.375-8.668,11.998-8.668h30c6.632,0,12.005,3.884,12.005,8.668v75.817
				c0,4.79-5.373,8.668-12.005,8.668h-30c-6.624,0-11.998-3.876-11.998-8.668V248.84z"/>
			
				<linearGradient id="SVGID_7_" gradientUnits="userSpaceOnUse" x1="394.8721" y1="-465.7539" x2="448.873" y2="-465.7539" gradientTransform="matrix(-1 0 0 1 535.6699 769.6758)">
				<stop  offset="0.0056" style="stop-color:#7D7C7D"/>
				<stop  offset="0.0899" style="stop-color:#0D0D0D"/>
				<stop  offset="0.5718" style="stop-color:#0F0F0F"/>
				<stop  offset="0.7451" style="stop-color:#151515"/>
				<stop  offset="0.8478" style="stop-color:#1F1F1F"/>
				<stop  offset="0.8737" style="stop-color:#242424"/>
				<stop  offset="0.9066" style="stop-color:#343434"/>
				<stop  offset="0.9433" style="stop-color:#4E4E4E"/>
				<stop  offset="0.9825" style="stop-color:#727272"/>
				<stop  offset="1" style="stop-color:#858585"/>
			</linearGradient>
			<rect x="86.797" y="291.783" fill="url(#SVGID_7_)" width="54.001" height="24.278"/>
			
				<linearGradient id="SVGID_8_" gradientUnits="userSpaceOnUse" x1="420.3867" y1="-435.1689" x2="422.9213" y2="-531.6478" gradientTransform="matrix(-1 0 0 1 535.6699 769.6758)">
				<stop  offset="0" style="stop-color:#000000"/>
				<stop  offset="0.0841" style="stop-color:#2C2C2D"/>
				<stop  offset="0.1742" style="stop-color:#58585A"/>
				<stop  offset="0.2191" style="stop-color:#969696"/>
				<stop  offset="0.4326" style="stop-color:#959597"/>
				<stop  offset="0.4831" style="stop-color:#575758"/>
				<stop  offset="1" style="stop-color:#0D0D0D"/>
			</linearGradient>
			<path fill="url(#SVGID_8_)" d="M102.368,305.77l2.316,2.928h4.208v-0.26h-3.999l-2.11-2.667l2.11-2.669h3.999v-0.264h-4.208
				L102.368,305.77z M102.368,318.495l2.316,2.933h4.208v-0.263h-3.999l-2.11-2.67l2.11-2.669h3.999v-0.261h-4.208L102.368,318.495z
				 M102.368,293.042l2.316,2.929h4.208v-0.265h-3.999l-2.11-2.665l2.11-2.672h3.999v-0.263h-4.208L102.368,293.042z
				 M115.093,331.231l-1.648,2.096h0.418l1.648-2.096l-2.314-2.93h-4.208v0.259h4.004L115.093,331.231z M115.512,293.049
				l-2.314-2.931h-4.208v0.265h4.004l2.1,2.667l-2.1,2.671h-4.004v0.263h4.208L115.512,293.049z M102.368,280.312l2.316,2.931h4.208
				v-0.26h-3.999l-2.11-2.67l2.11-2.669h3.999v-0.264h-4.208L102.368,280.312z M115.512,280.325l-2.314-2.932h-4.208v0.263h4.004
				l2.1,2.669l-2.1,2.666h-4.004v0.263h4.208L115.512,280.325z M115.512,305.782l-2.314-2.936h-4.208v0.265h4.004l2.1,2.67
				l-2.1,2.667h-4.004v0.262h4.208L115.512,305.782z M115.512,318.507l-2.314-2.933h-4.208v0.263h4.004l2.1,2.67l-2.1,2.667h-4.004
				v0.264h4.208L115.512,318.507z M115.512,267.597l-2.314-2.932h-4.208v0.259h4.004l2.1,2.672l-2.1,2.667h-4.004v0.267h4.208
				L115.512,267.597z M102.368,267.587l2.316,2.93h4.208v-0.263h-3.999l-2.11-2.667l2.11-2.67h3.999v-0.264h-4.208L102.368,267.587z
				 M105.191,299.539l-2.313-2.934h-4.207v0.266h3.998l2.105,2.668l-2.105,2.669h-3.998v0.261h4.207L105.191,299.539z
				 M129.364,245.063v-0.261h-3.995l-2.107-2.665l1.545-1.962h-0.413l-1.545,1.962l2.312,2.926H129.364L129.364,245.063z
				 M105.191,286.813l-2.313-2.934h-4.207v0.265h3.998l2.105,2.669l-2.105,2.667h-3.998v0.267h4.207L105.191,286.813z
				 M112.692,312.277l2.312,2.932h4.208v-0.013h4.139l2.317-2.932l-2.317-2.93h-4.207v0.014h-4.141L112.692,312.277z
				 M119.213,309.609v-0.012h3.932l2.105,2.667l-2.105,2.673h-4v0.009h-3.932l-2.108-2.669l2.108-2.668H119.213z M105.191,248.631
				l-2.313-2.932h-4.207v0.263h3.998l2.105,2.668l-2.105,2.671h-3.998v0.264h4.207L105.191,248.631z M105.191,274.088l-2.313-2.933
				h-4.207v0.264h3.998l2.105,2.669l-2.105,2.667h-3.998v0.265h4.207L105.191,274.088z M102.368,254.859l2.316,2.933h4.208v-0.266
				h-3.999l-2.11-2.667l2.11-2.665h3.999v-0.269h-4.208L102.368,254.859z M105.191,261.36l-2.313-2.932h-4.207v0.262h3.998
				l2.105,2.67l-2.105,2.667h-3.998v0.261h4.207L105.191,261.36z M105.191,312.264l-2.313-2.93h-4.207v0.263h3.998l2.105,2.667
				l-2.105,2.673h-3.998v0.259h4.207L105.191,312.264z M119.213,264.289h4.139l2.32-2.928l-2.32-2.932h-4.204v0.009h-4.144
				l-2.312,2.934l2.312,2.93h4.208V264.289L119.213,264.289z M119.148,264.037h-3.935l-2.108-2.669l2.108-2.668h4v-0.012h3.932
				l2.105,2.67l-2.105,2.667h-3.997V264.037z M115.512,242.144l-1.556-1.969h-0.416l1.552,1.969l-2.1,2.669h-4.004v0.259h4.208
				L115.512,242.144z M115.512,254.871l-2.314-2.933h-4.208v0.264h4.004l2.1,2.669l-2.1,2.67h-4.004v0.258h4.208L115.512,254.871z
				 M112.692,274.098l2.312,2.928h4.208v-0.006h4.139l2.32-2.932l-2.32-2.933h-4.204v0.01h-4.144L112.692,274.098z M119.213,271.428
				v-0.009h3.932l2.105,2.669l-2.105,2.667h-3.997v0.013h-3.935l-2.108-2.67l2.108-2.669H119.213z M112.692,286.825l2.312,2.928
				h4.208v-0.006h4.139l2.317-2.934l-2.317-2.934h-4.207v0.01h-4.141L112.692,286.825z M119.213,284.154v-0.009h3.932l2.105,2.669
				l-2.105,2.667h-4v0.015h-3.932l-2.108-2.67l2.108-2.671H119.213z M112.692,299.548l2.312,2.934h4.208v-0.013h4.139l2.317-2.93
				l-2.317-2.934h-4.207v0.012h-4.141L112.692,299.548z M119.213,296.883v-0.012h3.932l2.105,2.668l-2.105,2.669h-4v0.01h-3.932
				l-2.108-2.669l2.108-2.666H119.213z M125.669,324.994l-2.317-2.933h-4.207v0.006h-4.141l-2.312,2.936l2.312,2.933h4.208v-0.014
				h4.139L125.669,324.994z M119.146,327.662v0.011h-3.932l-2.108-2.67l2.108-2.667h4v-0.011h3.932l2.105,2.669l-2.105,2.668
				H119.146z M98.671,327.662v0.261h4.207l2.313-2.929l-2.313-2.933h-4.207v0.264h3.998l2.105,2.669l-2.105,2.668H98.671z
				 M122.846,331.223l1.657,2.105h0.42l-1.663-2.105l2.107-2.667h3.995v-0.269h-4.206L122.846,331.223z M108.893,245.063v-0.261
				h-3.999l-2.11-2.665l1.544-1.962h-0.417l-1.542,1.962l2.316,2.926H108.893L108.893,245.063z M122.846,254.859l2.313,2.933h4.206
				v-0.266h-3.995l-2.107-2.667l2.107-2.665h3.995v-0.269h-4.206L122.846,254.859z M122.846,267.587l2.313,2.93h4.206v-0.263h-3.995
				l-2.107-2.667l2.107-2.67h3.995v-0.264h-4.206L122.846,267.587z M112.692,248.643l2.312,2.934h4.208v-0.01h4.139l2.32-2.935
				l-2.32-2.932h-4.204v0.012h-4.144L112.692,248.643z M119.213,245.972v-0.009h3.932l2.105,2.668l-2.105,2.671h-3.997v0.011h-3.935
				l-2.108-2.671l2.108-2.67H119.213z M102.368,331.223l1.661,2.105h0.416l-1.661-2.105l2.11-2.667h3.999v-0.269h-4.208
				L102.368,331.223z M122.846,280.312l2.313,2.931h4.206v-0.26h-3.995l-2.107-2.67l2.107-2.669h3.995v-0.264h-4.206
				L122.846,280.312z M122.846,305.77l2.313,2.928h4.206v-0.26h-3.995l-2.107-2.667l2.107-2.669h3.995v-0.264h-4.206L122.846,305.77
				z M122.846,293.042l2.313,2.929h4.206v-0.265h-3.995l-2.107-2.665l2.107-2.672h3.995v-0.263h-4.206L122.846,293.042z
				 M122.846,318.495l2.313,2.933h4.206v-0.263h-3.995l-2.107-2.67l2.107-2.669h3.995v-0.261h-4.206L122.846,318.495z"/>
			<g>
				<g>
					<rect x="127.665" y="240.174" fill="#666666" width="2.725" height="93.153"/>
					<rect x="128.343" y="240.174" fill="#0A0A0A" width="1.863" height="93.153"/>
				</g>
				<g>
					<rect x="117.512" y="240.174" fill="#666666" width="2.727" height="93.153"/>
					<rect x="118.191" y="240.174" fill="#0A0A0A" width="1.858" height="93.153"/>
				</g>
				<g>
					<rect x="107.36" y="240.174" fill="#666666" width="2.723" height="93.153"/>
					<rect x="108.042" y="240.174" fill="#0A0A0A" width="1.856" height="93.153"/>
				</g>
				<g>
					<rect x="97.203" y="240.174" fill="#666666" width="2.728" height="93.153"/>
					<rect x="97.884" y="240.174" fill="#0A0A0A" width="1.856" height="93.153"/>
				</g>
			</g>
		</g>
	</g>
	<g>
		<path fill="#FFBF00" d="M124.792,145.066c0,0-18.285-3.802-36.862,14.268c-18.58,18.069-36.566,54.529,2.657,89.4
			c39.22,34.875,134.177,12.685,134.177,12.685S128.035,166.943,124.792,145.066z"/>
		<path fill="#FFBF00" d="M322.052,145.066c0,0,18.281-3.802,36.858,14.268c18.58,18.069,36.566,54.529-2.653,89.4
			C317.038,283.61,222.08,261.42,222.08,261.42S318.811,166.943,322.052,145.066z"/>
	</g>
	<path fill="#FFBF00" d="M223.422,267.458c56.854,0,102.946-60.701,102.946-108.837c0-4.768-0.47-9.442-1.34-13.999H121.818
		c-0.873,4.558-1.344,9.23-1.344,13.999C120.476,206.757,166.568,267.458,223.422,267.458z"/>
	<path fill="#F7A300" d="M372.049,229.312c-50.752,23.981-97.84,24.298-144.78,24.83c-46.945,0.53-100.559-0.847-151.312-24.83
		c0,0-9.783,44.063,20.389,58.196c28.291,13.261,76.681,20.664,127.657,19.471c50.977,1.193,99.359-6.211,127.658-19.471
		C381.831,273.374,372.049,229.312,372.049,229.312z"/>
	<path fill="#3F3F3F" d="M225.271,223.933c-21.016,0.25-44.433-0.231-67.488-7.745c1.39,1.97,3.147,3.683,5.36,4.969
		c13.37,7.781,36.227,12.126,60.308,11.427c24.083,0.699,46.944-3.648,60.315-11.427c2.177-1.268,3.915-2.954,5.294-4.89
		C267.079,223.505,246.146,223.682,225.271,223.933z"/>
	<path fill="#3F3F3F" d="M225.271,239.711c-21.016,0.25-44.433-0.228-67.488-7.743c1.39,1.973,3.147,3.684,5.36,4.972
		c13.37,7.781,36.227,12.126,60.308,11.424c24.083,0.703,46.944-3.646,60.315-11.424c2.177-1.272,3.915-2.956,5.294-4.89
		C267.079,239.288,246.146,239.462,225.271,239.711z"/>
	
		<linearGradient id="SVGID_9_" gradientUnits="userSpaceOnUse" x1="4.9644" y1="353.1577" x2="4.9644" y2="447.3184" gradientTransform="matrix(1 0 0 -1 219.04 663.3398)">
		<stop  offset="0" style="stop-color:#FFFFFF"/>
		<stop  offset="0.1202" style="stop-color:#FFF4D1"/>
		<stop  offset="0.3016" style="stop-color:#FFE492"/>
		<stop  offset="0.4754" style="stop-color:#FFD75E"/>
		<stop  offset="0.6367" style="stop-color:#FFCC35"/>
		<stop  offset="0.7828" style="stop-color:#FFC518"/>
		<stop  offset="0.9087" style="stop-color:#FFC106"/>
		<stop  offset="1" style="stop-color:#FFBF00"/>
	</linearGradient>
	<path fill="url(#SVGID_9_)" d="M370.161,237.582c-50.087,26.058-96.583,26.408-142.93,26.989
		c-46.345,0.579-99.26-0.927-149.384-26.991c0.382,15.148,4.427,34.833,21.364,43.717c27.662,14.509,74.961,22.608,124.792,21.306
		c49.832,1.304,97.126-6.797,124.791-21.306C365.729,272.413,369.775,252.73,370.161,237.582z"/>
	
		<linearGradient id="SVGID_10_" gradientUnits="userSpaceOnUse" x1="4.3789" y1="515.3457" x2="4.3789" y2="487.9629" gradientTransform="matrix(1 0 0 -1 219.04 663.3398)">
		<stop  offset="0" style="stop-color:#FFFFFF"/>
		<stop  offset="0.1779" style="stop-color:#FFF2CC"/>
		<stop  offset="0.3805" style="stop-color:#FFE598"/>
		<stop  offset="0.5709" style="stop-color:#FFDB6F"/>
		<stop  offset="0.7435" style="stop-color:#FFD352"/>
		<stop  offset="0.8922" style="stop-color:#FFCF40"/>
		<stop  offset="1" style="stop-color:#FFCD3A"/>
	</linearGradient>
	<path fill="url(#SVGID_10_)" d="M340.199,159.581c0,0,1.934-7.897-17.787-9.976c-14.355-1.513-80.623-1.863-105.37-1.449
		c-24.748,0.41-78.257-0.062-92.61,1.449c-19.723,2.079-17.79,9.976-17.79,9.976c-18.559,3.325-22.042,15.796-22.042,15.796
		c15.857-12.885,30.551-7.482,30.551-7.482c10.131-7.171,77.72-3.284,101.693-3.407c23.978-0.126,104.716-3.764,114.848,3.407
		c0,0,14.694-5.403,30.547,7.482C362.241,175.377,358.758,162.906,340.199,159.581z"/>
	<g>
		
			<radialGradient id="SVGID_11_" cx="-198.3975" cy="527.0381" r="26.4616" gradientTransform="matrix(0.9302 0 0 -1 243.1404 663.3398)" gradientUnits="userSpaceOnUse">
			<stop  offset="0" style="stop-color:#FFFFFF"/>
			<stop  offset="0.1202" style="stop-color:#FFF4D1"/>
			<stop  offset="0.3016" style="stop-color:#FFE492"/>
			<stop  offset="0.4754" style="stop-color:#FFD75E"/>
			<stop  offset="0.6367" style="stop-color:#FFCC35"/>
			<stop  offset="0.7828" style="stop-color:#FFC518"/>
			<stop  offset="0.9087" style="stop-color:#FFC106"/>
			<stop  offset="1" style="stop-color:#FFBF00"/>
		</radialGradient>
		<path fill="url(#SVGID_11_)" d="M93.206,154.802c0,4.135-3.117,7.483-6.962,7.483H61.304c-3.841,0-6.96-3.349-6.96-7.483v-11.848
			c0-4.13,3.12-7.484,6.96-7.484h24.939c3.846,0,6.962,3.354,6.962,7.484V154.802z"/>
		
			<radialGradient id="SVGID_12_" cx="632.6836" cy="530.1865" r="27.8975" gradientTransform="matrix(-0.9302 0 0 -1 951.6877 663.3398)" gradientUnits="userSpaceOnUse">
			<stop  offset="0" style="stop-color:#FFFFFF"/>
			<stop  offset="0.1202" style="stop-color:#FFF4D1"/>
			<stop  offset="0.3016" style="stop-color:#FFE492"/>
			<stop  offset="0.4754" style="stop-color:#FFD75E"/>
			<stop  offset="0.6367" style="stop-color:#FFCC35"/>
			<stop  offset="0.7828" style="stop-color:#FFC518"/>
			<stop  offset="0.9087" style="stop-color:#FFC106"/>
			<stop  offset="1" style="stop-color:#FFBF00"/>
		</radialGradient>
		<path fill="url(#SVGID_12_)" d="M353.638,154.802c0,4.135,3.118,7.483,6.962,7.483h24.939c3.846,0,6.961-3.349,6.961-7.483
			v-11.848c0-4.13-3.115-7.484-6.961-7.484H360.6c-3.844,0-6.962,3.354-6.962,7.484V154.802z"/>
	</g>
	<g>
		<g>
			<g>
				<circle fill="#8A8A8A" cx="110.747" cy="198.676" r="30.959"/>
				
					<linearGradient id="SVGID_13_" gradientUnits="userSpaceOnUse" x1="-119.2495" y1="437.5273" x2="-119.2495" y2="496.5879" gradientTransform="matrix(1 0.0091 0.0091 -1 225.743 666.8196)">
					<stop  offset="0" style="stop-color:#FFFFFF"/>
					<stop  offset="0.1162" style="stop-color:#EDEDED"/>
					<stop  offset="0.3618" style="stop-color:#CCCCCC"/>
					<stop  offset="0.597" style="stop-color:#B4B4B4"/>
					<stop  offset="0.8153" style="stop-color:#A6A6A6"/>
					<stop  offset="1" style="stop-color:#A1A1A1"/>
				</linearGradient>
				<path fill="url(#SVGID_13_)" d="M140.271,198.951c-0.149,16.31-13.488,29.409-29.79,29.256
					c-16.322-0.148-29.415-13.487-29.264-29.802c0.148-16.308,13.48-29.412,29.795-29.259
					C127.318,169.29,140.424,182.639,140.271,198.951z"/>
			</g>
			<path fill="#2EB0E6" d="M134.972,198.722c-0.023,12.606-10.893,22.816-24.266,22.788c-13.379-0.016-24.215-10.255-24.192-22.87
				c0.024-12.605,10.884-22.825,24.266-22.802C124.161,175.862,134.996,186.108,134.972,198.722z"/>
			
				<linearGradient id="SVGID_14_" gradientUnits="userSpaceOnUse" x1="-110.1226" y1="384.4795" x2="-110.1226" y2="411.8833" gradientTransform="matrix(0.9999 0.0015 0.0015 -0.9999 220.325 588.9977)">
				<stop  offset="0" style="stop-color:#2EB0E6"/>
				<stop  offset="0.1301" style="stop-color:#32B2E7"/>
				<stop  offset="0.2683" style="stop-color:#3FB6E8"/>
				<stop  offset="0.4103" style="stop-color:#54BEEB"/>
				<stop  offset="0.5549" style="stop-color:#72CAEE"/>
				<stop  offset="0.7016" style="stop-color:#98D8F3"/>
				<stop  offset="0.85" style="stop-color:#C7EAF8"/>
				<stop  offset="0.9971" style="stop-color:#FEFFFF"/>
				<stop  offset="1" style="stop-color:#FFFFFF"/>
			</linearGradient>
			<path fill="url(#SVGID_14_)" d="M128.741,190.72c-0.007,7.567-8.047,13.683-17.952,13.672
				c-9.893-0.015-17.917-6.166-17.908-13.728c0.017-7.559,8.062-13.691,17.955-13.673
				C120.734,177.005,128.761,183.148,128.741,190.72z"/>
		</g>
		<g>
			<g>
				<path fill="#8A8A8A" d="M367.491,198.959c-0.16,17.101-14.143,30.824-31.242,30.671c-17.103-0.153-30.832-14.133-30.674-31.239
					c0.153-17.101,14.138-30.823,31.239-30.669C353.915,167.878,367.644,181.859,367.491,198.959z"/>
				
					<linearGradient id="SVGID_15_" gradientUnits="userSpaceOnUse" x1="106.5181" y1="439.582" x2="106.5181" y2="498.6426" gradientTransform="matrix(1 0.0091 0.0091 -1 225.743 666.8196)">
					<stop  offset="0" style="stop-color:#FFFFFF"/>
					<stop  offset="0.1162" style="stop-color:#EDEDED"/>
					<stop  offset="0.3618" style="stop-color:#CCCCCC"/>
					<stop  offset="0.597" style="stop-color:#B4B4B4"/>
					<stop  offset="0.8153" style="stop-color:#A6A6A6"/>
					<stop  offset="1" style="stop-color:#A1A1A1"/>
				</linearGradient>
				<path fill="url(#SVGID_15_)" d="M366.059,198.951c-0.148,16.31-13.487,29.409-29.79,29.256
					c-16.324-0.148-29.414-13.487-29.266-29.802c0.148-16.308,13.48-29.412,29.795-29.259
					C353.105,169.29,366.211,182.639,366.059,198.951z"/>
			</g>
			
				<ellipse transform="matrix(0.0017 -1 1 0.0017 137.2264 534.896)" fill="#2EB0E6" cx="336.516" cy="198.718" rx="22.83" ry="24.23"/>
			
				<linearGradient id="SVGID_16_" gradientUnits="userSpaceOnUse" x1="115.6875" y1="384.8184" x2="115.6875" y2="412.2222" gradientTransform="matrix(0.9999 0.0015 0.0015 -0.9999 220.325 588.9977)">
				<stop  offset="0" style="stop-color:#2EB0E6"/>
				<stop  offset="0.1301" style="stop-color:#32B2E7"/>
				<stop  offset="0.2683" style="stop-color:#3FB6E8"/>
				<stop  offset="0.4103" style="stop-color:#54BEEB"/>
				<stop  offset="0.5549" style="stop-color:#72CAEE"/>
				<stop  offset="0.7016" style="stop-color:#98D8F3"/>
				<stop  offset="0.85" style="stop-color:#C7EAF8"/>
				<stop  offset="0.9971" style="stop-color:#FEFFFF"/>
				<stop  offset="1" style="stop-color:#FFFFFF"/>
			</linearGradient>
			<path fill="url(#SVGID_16_)" d="M354.529,190.72c-0.007,7.567-8.049,13.683-17.951,13.672
				c-9.894-0.015-17.917-6.166-17.909-13.728c0.015-7.559,8.061-13.691,17.955-13.673
				C346.521,177.005,354.545,183.148,354.529,190.72z"/>
		</g>
	</g>
</g>
</svg>
