<?xml version="1.0" encoding="UTF-8"?>
<svg width="28px" height="28px" viewBox="0 0 28 28" version="1.1" xmlns="http://www.w3.org/2000/svg" xmlns:xlink="http://www.w3.org/1999/xlink">
    <!-- Generator: Sketch 41.2 (35397) - http://www.bohemiancoding.com/sketch -->
    <title>Combined Shape</title>
    <desc>Created with Sketch.</desc>
    <defs></defs>
    <g id="APP" stroke="none" stroke-width="1" fill="none" fill-rule="evenodd">
        <g id="03发布收费提醒" transform="translate(-582.000000, -144.000000)" fill="#7E6E4B">
            <g id="报错" transform="translate(0.000000, 128.000000)">
                <g id="Group-3">
                    <g id="小图标/关于" transform="translate(582.000000, 16.000000)">
                        <g id="Combined-Shape">
                            <path d="M15.4142136,14 L20.363961,9.05025253 L18.9497475,7.63603897 L14,12.5857864 L9.05025253,7.63603897 L7.63603897,9.05025253 L12.5857864,14 L7.63603897,18.9497475 L9.05025253,20.363961 L14,15.4142136 L18.9497475,20.363961 L20.363961,18.9497475 L15.4142136,14 Z M14.4242424,28 C21.7319865,28 28,21.7319865 28,14.4242424 C28,6.2680135 21.7319865,0 14.4242424,0 C6.2680135,0 0,6.2680135 0,14.4242424 C0,21.7319865 6.2680135,28 14.4242424,28 Z M14,26 C20.627417,26 26,20.627417 26,14 C26,7.372583 20.627417,2 14,2 C7.372583,2 2,7.372583 2,14 C2,20.627417 7.372583,26 14,26 Z"></path>
                        </g>
                    </g>
                </g>
            </g>
        </g>
    </g>
</svg>