<?xml version="1.0" encoding="UTF-8"?>
<svg width="24px" height="24px" viewBox="0 0 24 24" version="1.1" xmlns="http://www.w3.org/2000/svg" xmlns:xlink="http://www.w3.org/1999/xlink">
    <!-- Generator: Sketch 41.2 (35397) - http://www.bohemiancoding.com/sketch -->
    <title>Shape</title>
    <desc>Created with Sketch.</desc>
    <defs></defs>
    <g id="APP" stroke="none" stroke-width="1" fill="none" fill-rule="evenodd">
        <g id="01拼车首页" transform="translate(-516.000000, -521.000000)" fill="#727272">
            <g id="subtab" transform="translate(0.000000, 496.000000)">
                <g id="Group-14-Copy" transform="translate(480.000000, 0.000000)">
                    <g id="筛选-(1)" transform="translate(36.000000, 25.000000)">
                        <g id="Group" transform="translate(0.000000, 0.013805)">
                            <path d="M23.3612385,13.3213887 L17.3621289,13.3213887 C17.0092401,13.3213887 16.7975068,13.6137456 16.7975068,13.9061026 L16.7975068,14.1253704 C16.7975068,14.4908166 17.0798178,14.7100843 17.3621289,14.7100843 L23.3612385,14.7100843 C23.7141273,14.7100843 23.9258605,14.4177273 23.9258605,14.1253704 L23.9258605,13.9791919 C23.9258606,13.6137456 23.6435495,13.3213887 23.3612385,13.3213887 L23.3612385,13.3213887 Z M23.3612385,16.9758509 L17.3621289,16.9758509 C17.0092401,16.9758509 16.7975068,17.2682078 16.7975068,17.5605648 L16.7975068,17.7798325 C16.7975068,18.1452788 17.0798178,18.3645465 17.3621289,18.3645465 L23.3612385,18.3645465 C23.7141273,18.3645465 23.9258605,18.0721895 23.9258605,17.7798325 L23.9258605,17.5605648 C23.9258606,17.1951186 23.6435495,16.9758509 23.3612385,16.9758509 L23.3612385,16.9758509 Z M23.3612385,20.6303131 L17.3621289,20.6303131 C17.0092401,20.6303131 16.7975068,20.9226701 16.7975068,21.215027 L16.7975068,21.507384 C16.7975068,21.8728302 17.0798178,22.0920979 17.3621289,22.0920979 L23.3612385,22.0920979 C23.7141273,22.0920979 23.9258605,21.799741 23.9258605,21.507384 L23.9258605,21.215027 C23.9258606,20.9226701 23.6435495,20.6303131 23.3612385,20.6303131 L23.3612385,20.6303131 Z M20.6087058,5.0623041 C20.7498614,4.9161256 20.8910169,4.76994712 20.9615946,4.62376863 C21.6673722,3.74669769 21.73795,2.43109131 21.1733279,1.48093113 C20.6087058,0.530770959 19.7617727,0.019146253 18.6325286,0.019146253 L2.89368814,0.019146253 C2.6113771,0.019146253 2.32906607,0.019146253 2.11733279,0.09223549 C0.917510878,0.384592461 0,1.55402037 0,2.86962678 C0,3.67360845 0.282311034,4.40450089 0.846933125,4.9161256 C2.89368814,7.10880294 4.94044318,9.15530176 6.98719821,11.2018006 C7.05777596,11.2748898 7.05777596,11.3479791 7.05777596,11.4210683 L7.05777596,17.926011 L7.05777596,18.1452788 C7.12835372,18.7299927 7.48124253,19.0223497 7.97528684,18.803082 C8.25759788,18.6569035 8.39875341,18.3645465 8.39875341,17.9991003 L8.39875341,11.1287114 C8.39875341,10.8363544 8.32817565,10.5439974 8.11644237,10.3247297 C6.06968733,8.20514159 4.23466558,6.08555351 2.18791054,4.03905468 C2.04675504,3.89287619 1.97617726,3.81978695 1.90559951,3.67360845 C1.62328847,3.30816222 1.5527107,2.94271601 1.69386623,2.50418054 C1.90559951,1.99255584 2.32906607,1.48093113 2.89368814,1.48093113 L18.6325286,1.48093113 L18.7736841,1.48093113 C19.5500394,1.48093113 20.1146615,2.43109131 19.9029283,3.23507298 C19.8323505,3.52742996 19.691195,3.67360845 19.4794617,3.89287619 C17.2915511,6.08555351 15.1742184,8.27823083 12.9863078,10.5439974 C12.7745745,10.7632651 12.633419,10.9825329 12.633419,11.3479791 L12.633419,21.4342948 L12.633419,22.8960796 C12.633419,23.1884366 12.7039967,23.4077044 12.91573,23.5538829 C12.91573,23.5538829 12.91573,23.5538829 12.91573,23.6269721 L13.6920854,23.6269721 C13.9743964,23.4077044 13.9743964,23.0422581 13.9743964,22.7499012 L13.9743964,11.7865146 C13.9743964,11.7134253 13.9743964,11.6403361 14.0449742,11.5672468 C16.2328847,9.30148026 18.5619508,7.18189218 20.6087058,5.0623041 L20.6087058,5.0623041 Z" id="Shape"></path>
                        </g>
                    </g>
                </g>
            </g>
        </g>
    </g>
</svg>