<?xml version="1.0" encoding="UTF-8"?>
<svg width="38px" height="37px" viewBox="0 0 38 37" version="1.1" xmlns="http://www.w3.org/2000/svg" xmlns:xlink="http://www.w3.org/1999/xlink">
    <!-- Generator: Sketch 41.2 (35397) - http://www.bohemiancoding.com/sketch -->
    <title>Shape</title>
    <desc>Created with Sketch.</desc>
    <defs></defs>
    <g id="APP" stroke="none" stroke-width="1" fill="none" fill-rule="evenodd">
        <g id="01拼车首页" transform="translate(-31.000000, -397.000000)" fill="#C2C2C2">
            <g id="Group-3" transform="translate(0.000000, 364.000000)">
                <g id="我的" transform="translate(31.000000, 33.000000)">
                    <path d="M28.4234522,12.1104995 C28.9278983,5.87888324 24.7899231,0 18.9755179,0 C13.1649056,0 9.02313757,5.87888324 9.52758367,12.1104995 C10.0130656,18.0690321 14.3141325,22.1387364 18.9755179,22.1387364 C23.6369034,22.1387364 27.9417631,18.0652392 28.4234522,12.1104995 Z M0,32.8534752 C0,34.6019689 1.60815903,35.2770922 6.34160824,35.789124 C9.99789433,36.183578 14.367232,36.183578 18.9755179,36.183578 C23.6975887,36.183578 28.3817311,36.183578 31.6739057,35.789124 C36.3352912,35.2315783 37.9510359,34.6019688 37.9510359,32.8534752 C37.9510359,27.7369504 29.3261453,23.5875967 18.8920757,23.5875967 C8.45800622,23.5875967 0,27.7369504 0,32.8534752 Z" id="Shape"></path>
                </g>
            </g>
        </g>
    </g>
</svg>