<?xml version="1.0" encoding="UTF-8"?>
<svg width="20px" height="29px" viewBox="0 0 20 29" version="1.1" xmlns="http://www.w3.org/2000/svg" xmlns:xlink="http://www.w3.org/1999/xlink">
    <!-- Generator: Sketch 41.2 (35397) - http://www.bohemiancoding.com/sketch -->
    <title>Shape</title>
    <desc>Created with Sketch.</desc>
    <defs></defs>
    <g id="Symbols" stroke="none" stroke-width="1" fill="none" fill-rule="evenodd">
        <g id="btn_dail" transform="translate(-31.000000, -18.000000)" fill="#AEAAAA">
            <g id="电话">
                <g id="Group" transform="translate(0.022547, 0.120253)">
                    <g id="Group-15">
                        <g id="Group-16">
                            <g id="Group-12" transform="translate(26.000000, 10.000000)">
                                <path d="M21.4737408,35.0131104 L21.4732185,35.0131104 L21.3422346,35.0101001 C18.2946969,34.8499889 14.1791209,31.9037569 10.3318674,27.1287337 L8.91077616,25.3656917 C5.06352278,20.5903109 3.04789687,15.9263999 3.51925325,12.8895018 C3.85193614,10.7469556 6.95315578,8.93881905 8.72521082,8.93881905 C9.59802097,8.93881905 9.91422206,9.38496673 10.0247778,9.65136183 C11.0279045,11.4824481 12.2691178,14.6668202 12.2748342,15.8089392 L12.2752114,15.8902168 L12.2468325,15.9660998 C12.0256049,16.5664574 11.5305705,16.8540735 11.0938317,17.1077718 C10.5184775,17.4417343 10.191511,17.661008 10.1515832,18.2923328 C10.1397152,18.4839179 10.3005868,19.3554692 12.8387846,22.5692288 L13.9239431,23.9151231 C16.469163,27.0003943 17.2699523,27.332509 17.4574328,27.3599592 C18.0712059,27.4476448 18.3602178,27.1712353 18.8016574,26.6742109 C19.1377063,26.2957498 19.518935,25.8662332 20.1479712,25.7716328 L20.2276236,25.7599791 L20.3059412,25.7770573 C21.4143424,26.0171347 24.251505,27.8952231 25.8621661,29.2895501 C26.0947104,29.4480818 26.5005458,29.918729 26.1791796,30.9584388 C25.6750628,32.5913233 23.4773535,35.0131104 21.4737408,35.0131104 L21.4737408,35.0131104 L21.4737408,35.0131104 Z" id="Shape" transform="translate(14.874952, 21.975965) rotate(12.000000) translate(-14.874952, -21.975965) "></path>
                            </g>
                        </g>
                    </g>
                </g>
            </g>
        </g>
    </g>
</svg>